<svg width="22" height="22" viewBox="0 0 22 22" fill="none" xmlns="http://www.w3.org/2000/svg">
<path fill-rule="evenodd" clip-rule="evenodd" d="M13.0347 2.03468C13.6674 1.40194 14.5607 1.14581 15.5833 1.14581H17.4167C18.4393 1.14581 19.3326 1.40194 19.9653 2.03468C20.5981 2.66742 20.8542 3.56067 20.8542 4.58331V6.41665C20.8542 7.43929 20.5981 8.33254 19.9653 8.96528C19.3326 9.59802 18.4393 9.85415 17.4167 9.85415H15.5833C14.5607 9.85415 13.6674 9.59802 13.0347 8.96528C12.402 8.33254 12.1458 7.43929 12.1458 6.41665V4.58331C12.1458 3.56067 12.402 2.66742 13.0347 2.03468ZM14.007 3.00695C13.7231 3.29088 13.5208 3.77262 13.5208 4.58331V6.41665C13.5208 7.22734 13.7231 7.70908 14.007 7.99301C14.2909 8.27694 14.7727 8.47915 15.5833 8.47915H17.4167C18.2274 8.47915 18.7091 8.27694 18.993 7.99301C19.277 7.70908 19.4792 7.22734 19.4792 6.41665V4.58331C19.4792 3.77262 19.277 3.29088 18.993 3.00695C18.7091 2.72302 18.2274 2.52081 17.4167 2.52081H15.5833C14.7727 2.52081 14.2909 2.72302 14.007 3.00695Z" fill="#F1F1F1"/>
<path fill-rule="evenodd" clip-rule="evenodd" d="M2.03471 13.0347C2.66745 12.4019 3.5607 12.1458 4.58334 12.1458H6.41668C7.43932 12.1458 8.33257 12.4019 8.96531 13.0347C9.59805 13.6674 9.85418 14.5607 9.85418 15.5833V17.4166C9.85418 18.4393 9.59805 19.3325 8.96531 19.9653C8.33257 20.598 7.43932 20.8541 6.41668 20.8541H4.58334C3.5607 20.8541 2.66745 20.598 2.03471 19.9653C1.40197 19.3325 1.14584 18.4393 1.14584 17.4166V15.5833C1.14584 14.5607 1.40197 13.6674 2.03471 13.0347ZM3.00698 14.0069C2.72305 14.2909 2.52084 14.7726 2.52084 15.5833V17.4166C2.52084 18.2273 2.72305 18.7091 3.00698 18.993C3.29091 19.2769 3.77265 19.4791 4.58334 19.4791H6.41668C7.22737 19.4791 7.70911 19.2769 7.99304 18.993C8.27697 18.7091 8.47918 18.2273 8.47918 17.4166V15.5833C8.47918 14.7726 8.27697 14.2909 7.99304 14.0069C7.70911 13.723 7.22737 13.5208 6.41668 13.5208H4.58334C3.77265 13.5208 3.29091 13.723 3.00698 14.0069Z" fill="#F1F1F1"/>
<path fill-rule="evenodd" clip-rule="evenodd" d="M5.50001 2.52081C3.85466 2.52081 2.52084 3.85463 2.52084 5.49998C2.52084 7.14533 3.85466 8.47915 5.50001 8.47915C7.14536 8.47915 8.47918 7.14533 8.47918 5.49998C8.47918 3.85463 7.14536 2.52081 5.50001 2.52081ZM1.14584 5.49998C1.14584 3.09524 3.09527 1.14581 5.50001 1.14581C7.90475 1.14581 9.85418 3.09524 9.85418 5.49998C9.85418 7.90472 7.90475 9.85415 5.50001 9.85415C3.09527 9.85415 1.14584 7.90472 1.14584 5.49998Z" fill="#F1F1F1"/>
<path fill-rule="evenodd" clip-rule="evenodd" d="M16.5 13.5208C14.8547 13.5208 13.5208 14.8546 13.5208 16.5C13.5208 18.1453 14.8547 19.4791 16.5 19.4791C18.1454 19.4791 19.4792 18.1453 19.4792 16.5C19.4792 14.8546 18.1454 13.5208 16.5 13.5208ZM12.1458 16.5C12.1458 14.0952 14.0953 12.1458 16.5 12.1458C18.9047 12.1458 20.8542 14.0952 20.8542 16.5C20.8542 18.9047 18.9047 20.8541 16.5 20.8541C14.0953 20.8541 12.1458 18.9047 12.1458 16.5Z" fill="#F1F1F1"/>
</svg>
