<svg width="44" height="43" viewBox="0 0 44 43" fill="none" xmlns="http://www.w3.org/2000/svg">
<g filter="url(#filter0_d_6_1021)">
<path d="M29.983 20.32C31.4028 19.1405 32.3057 17.3691 32.3057 15.3883C32.3057 13.4077 31.4028 11.6362 29.983 10.4568C30.1457 10.3786 30.3023 10.2938 30.4515 10.2019C31.3932 9.62099 32.5048 9.28552 33.6953 9.28552C37.093 9.28552 39.8474 12.0179 39.8474 15.3883C39.8474 18.7588 37.093 21.4912 33.6953 21.4912C32.5048 21.4912 31.3932 21.1557 30.4515 20.5749C30.3023 20.483 30.1457 20.3981 29.983 20.32Z" fill="#E65F2B"/>
</g>
<g filter="url(#filter1_d_6_1021)">
<path d="M28.2742 16.3507C28.9093 14.6252 28.7983 12.6432 27.7999 10.9279C26.8016 9.21254 25.1267 8.12619 23.3027 7.80899C23.4043 7.66062 23.4971 7.50949 23.5798 7.35588C24.1027 6.38576 24.8963 5.54391 25.9273 4.95341C28.8698 3.26816 32.6324 4.26826 34.3313 7.1872C36.0301 10.1061 35.0219 13.8386 32.0794 15.5238C31.0484 16.1143 29.9166 16.3751 28.8083 16.3392C28.6328 16.3335 28.4544 16.3378 28.2742 16.3507Z" fill="#E65F2B"/>
</g>
<g filter="url(#filter2_d_6_1021)">
<path d="M24.7932 13.7588C24.4735 11.9494 23.3783 10.288 21.6492 9.29765C19.92 8.30731 17.922 8.19722 16.1825 8.82721C16.1957 8.64837 16.1999 8.47143 16.1941 8.29736C16.1579 7.19788 16.4208 6.07522 17.0161 5.05243C18.715 2.1335 22.4775 1.13339 25.4201 2.81864C28.3625 4.5039 29.3708 8.23633 27.6719 11.1553C27.0766 12.178 26.228 12.9653 25.25 13.4839C25.0952 13.566 24.9429 13.6581 24.7932 13.7588Z" fill="#E65F2B"/>
</g>
<g filter="url(#filter3_d_6_1021)">
<path d="M20.4703 13.2417C19.2813 11.8333 17.4955 10.9377 15.4988 10.9377C13.5021 10.9377 11.7163 11.8333 10.5274 13.2417C10.4486 13.0803 10.3631 12.925 10.2704 12.777C9.68485 11.8428 9.34668 10.7402 9.34668 9.55915C9.34668 6.18863 12.1011 3.4563 15.4988 3.4563C18.8965 3.4563 21.6509 6.18863 21.6509 9.55915C21.6509 10.7402 21.3127 11.8428 20.7272 12.777C20.6345 12.925 20.5489 13.0803 20.4703 13.2417Z" fill="#E65F2B"/>
</g>
<g filter="url(#filter4_d_6_1021)">
<path d="M16.4689 14.9365C14.7293 14.3065 12.7313 14.4166 11.0021 15.4069C9.27295 16.3972 8.17783 18.0587 7.85808 19.8681C7.70852 19.7673 7.55615 19.6753 7.4013 19.5932C6.42335 19.0745 5.5747 18.2873 4.97944 17.2646C3.28057 14.3456 4.28874 10.6132 7.23126 8.9279C10.1738 7.24264 13.9363 8.24274 15.6353 11.1617C16.2305 12.1845 16.4934 13.3071 16.4571 14.4066C16.4515 14.5806 16.4557 14.7576 16.4689 14.9365Z" fill="#E65F2B"/>
</g>
<g filter="url(#filter5_d_6_1021)">
<path d="M13.8538 18.3906C12.0298 18.7078 10.355 19.7941 9.35662 21.5095C8.35828 23.2248 8.2473 25.2068 8.88238 26.9323C8.70209 26.9193 8.52369 26.9151 8.34819 26.9207C7.23985 26.9567 6.10812 26.6959 5.07709 26.1054C2.13457 24.4201 1.12639 20.6877 2.82525 17.7687C4.52411 14.8498 8.28669 13.8497 11.2292 15.535C12.2602 16.1255 13.0538 16.9673 13.5766 17.9374C13.6594 18.091 13.7523 18.2421 13.8538 18.3906Z" fill="#E65F2B"/>
</g>
<g filter="url(#filter6_d_6_1021)">
<path d="M13.3302 22.6775C11.9104 23.8569 11.0075 25.6284 11.0075 27.6091C11.0075 29.5898 11.9104 31.3613 13.3302 32.5407C13.1675 32.6188 13.0109 32.7037 12.8618 32.7956C11.92 33.3764 10.8085 33.7119 9.61793 33.7119C6.22022 33.7119 3.46582 30.9796 3.46582 27.6091C3.46582 24.2385 6.22022 21.5062 9.61793 21.5062C10.8085 21.5062 11.92 21.8417 12.8618 22.4226C13.0109 22.5145 13.1675 22.5994 13.3302 22.6775Z" fill="#E65F2B"/>
</g>
<g filter="url(#filter7_d_6_1021)">
<path d="M15.0386 26.6482C14.4035 28.3738 14.5145 30.3558 15.5128 32.0711C16.5112 33.7865 18.186 34.8728 20.01 35.19C19.9085 35.3384 19.8157 35.4895 19.7329 35.6432C19.2101 36.6132 18.4165 37.4551 17.3855 38.0456C14.4429 39.7309 10.6804 38.7307 8.98151 35.8118C7.28264 32.8928 8.29083 29.1604 11.2333 27.4751C12.2644 26.8846 13.3961 26.6238 14.5044 26.6598C14.6799 26.6655 14.8583 26.6613 15.0386 26.6482Z" fill="#E65F2B"/>
</g>
<g filter="url(#filter8_d_6_1021)">
<path d="M18.5228 29.2412C18.8426 31.0506 19.9377 32.712 21.6669 33.7023C23.396 34.6926 25.3941 34.8027 27.1337 34.1728C27.1205 34.3516 27.1163 34.5285 27.1219 34.7027C27.1582 35.8021 26.8953 36.9248 26.3001 37.9475C24.6011 40.8665 20.8386 41.8666 17.8961 40.1813C14.9535 38.4961 13.9454 34.7637 15.6443 31.8447C16.2395 30.822 17.0882 30.0347 18.0661 29.5161C18.2209 29.434 18.3733 29.3418 18.5228 29.2412Z" fill="#E65F2B"/>
</g>
<g filter="url(#filter9_d_6_1021)">
<path d="M22.8442 29.7611C24.0332 31.1695 25.819 32.0651 27.8157 32.0651C29.8124 32.0651 31.5982 31.1695 32.7872 29.7611C32.8658 29.9225 32.9514 30.0778 33.0441 30.2257C33.6296 31.1599 33.9678 32.2626 33.9678 33.4436C33.9678 36.8142 31.2134 39.5465 27.8157 39.5465C24.4179 39.5465 21.6636 36.8142 21.6636 33.4436C21.6636 32.2626 22.0017 31.1599 22.5872 30.2257C22.68 30.0778 22.7655 29.9225 22.8442 29.7611Z" fill="#E65F2B"/>
</g>
<g filter="url(#filter10_d_6_1021)">
<path d="M26.8472 28.0657C28.5867 28.6957 30.5847 28.5856 32.3138 27.5953C34.043 26.605 35.1381 24.9436 35.4579 23.1342C35.6074 23.2348 35.7598 23.3269 35.9147 23.409C36.8927 23.9277 37.7413 24.7149 38.3366 25.7377C40.0355 28.6566 39.0272 32.389 36.0848 34.0743C33.1422 35.7596 29.3797 34.7595 27.6808 31.8405C27.0855 30.8177 26.8226 29.6951 26.8588 28.5956C26.8646 28.4216 26.8604 28.2446 26.8472 28.0657Z" fill="#E65F2B"/>
</g>
<g filter="url(#filter11_d_6_1021)">
<path d="M33.9597 21.4858C33.9584 21.488 33.9572 21.4901 33.9559 21.4923C32.9577 23.2076 31.2829 24.2939 29.4589 24.6111C29.5603 24.7596 29.6532 24.9107 29.736 25.0642C30.2588 26.0344 31.0524 26.8762 32.0834 27.4667C35.0259 29.152 38.7885 28.1519 40.4874 25.233C41.9438 22.7304 41.4106 19.6301 39.3746 17.7344C38.4802 19.8637 36.4047 21.3825 33.9597 21.4858Z" fill="#E65F2B"/>
</g>
<defs>
<filter id="filter0_d_6_1021" x="27.983" y="7.28552" width="13.8644" height="16.2057" filterUnits="userSpaceOnUse" color-interpolation-filters="sRGB">
<feFlood flood-opacity="0" result="BackgroundImageFix"/>
<feColorMatrix in="SourceAlpha" type="matrix" values="0 0 0 0 0 0 0 0 0 0 0 0 0 0 0 0 0 0 127 0" result="hardAlpha"/>
<feOffset/>
<feGaussianBlur stdDeviation="1"/>
<feComposite in2="hardAlpha" operator="out"/>
<feColorMatrix type="matrix" values="0 0 0 0 1 0 0 0 0 1 0 0 0 0 1 0 0 0 0.25 0"/>
<feBlend mode="normal" in2="BackgroundImageFix" result="effect1_dropShadow_6_1021"/>
<feBlend mode="normal" in="SourceGraphic" in2="effect1_dropShadow_6_1021" result="shape"/>
</filter>
<filter id="filter1_d_6_1021" x="21.3027" y="2.13477" width="15.8538" height="16.2159" filterUnits="userSpaceOnUse" color-interpolation-filters="sRGB">
<feFlood flood-opacity="0" result="BackgroundImageFix"/>
<feColorMatrix in="SourceAlpha" type="matrix" values="0 0 0 0 0 0 0 0 0 0 0 0 0 0 0 0 0 0 127 0" result="hardAlpha"/>
<feOffset/>
<feGaussianBlur stdDeviation="1"/>
<feComposite in2="hardAlpha" operator="out"/>
<feColorMatrix type="matrix" values="0 0 0 0 1 0 0 0 0 1 0 0 0 0 1 0 0 0 0.25 0"/>
<feBlend mode="normal" in2="BackgroundImageFix" result="effect1_dropShadow_6_1021"/>
<feBlend mode="normal" in="SourceGraphic" in2="effect1_dropShadow_6_1021" result="shape"/>
</filter>
<filter id="filter2_d_6_1021" x="14.1825" y="0" width="16.3147" height="15.7588" filterUnits="userSpaceOnUse" color-interpolation-filters="sRGB">
<feFlood flood-opacity="0" result="BackgroundImageFix"/>
<feColorMatrix in="SourceAlpha" type="matrix" values="0 0 0 0 0 0 0 0 0 0 0 0 0 0 0 0 0 0 127 0" result="hardAlpha"/>
<feOffset/>
<feGaussianBlur stdDeviation="1"/>
<feComposite in2="hardAlpha" operator="out"/>
<feColorMatrix type="matrix" values="0 0 0 0 1 0 0 0 0 1 0 0 0 0 1 0 0 0 0.25 0"/>
<feBlend mode="normal" in2="BackgroundImageFix" result="effect1_dropShadow_6_1021"/>
<feBlend mode="normal" in="SourceGraphic" in2="effect1_dropShadow_6_1021" result="shape"/>
</filter>
<filter id="filter3_d_6_1021" x="7.34668" y="1.4563" width="16.3042" height="13.7854" filterUnits="userSpaceOnUse" color-interpolation-filters="sRGB">
<feFlood flood-opacity="0" result="BackgroundImageFix"/>
<feColorMatrix in="SourceAlpha" type="matrix" values="0 0 0 0 0 0 0 0 0 0 0 0 0 0 0 0 0 0 127 0" result="hardAlpha"/>
<feOffset/>
<feGaussianBlur stdDeviation="1"/>
<feComposite in2="hardAlpha" operator="out"/>
<feColorMatrix type="matrix" values="0 0 0 0 1 0 0 0 0 1 0 0 0 0 1 0 0 0 0.25 0"/>
<feBlend mode="normal" in2="BackgroundImageFix" result="effect1_dropShadow_6_1021"/>
<feBlend mode="normal" in="SourceGraphic" in2="effect1_dropShadow_6_1021" result="shape"/>
</filter>
<filter id="filter4_d_6_1021" x="2.15417" y="6.10925" width="16.3147" height="15.7588" filterUnits="userSpaceOnUse" color-interpolation-filters="sRGB">
<feFlood flood-opacity="0" result="BackgroundImageFix"/>
<feColorMatrix in="SourceAlpha" type="matrix" values="0 0 0 0 0 0 0 0 0 0 0 0 0 0 0 0 0 0 127 0" result="hardAlpha"/>
<feOffset/>
<feGaussianBlur stdDeviation="1"/>
<feComposite in2="hardAlpha" operator="out"/>
<feColorMatrix type="matrix" values="0 0 0 0 1 0 0 0 0 1 0 0 0 0 1 0 0 0 0.25 0"/>
<feBlend mode="normal" in2="BackgroundImageFix" result="effect1_dropShadow_6_1021"/>
<feBlend mode="normal" in="SourceGraphic" in2="effect1_dropShadow_6_1021" result="shape"/>
</filter>
<filter id="filter5_d_6_1021" x="0" y="12.7163" width="15.8538" height="16.2161" filterUnits="userSpaceOnUse" color-interpolation-filters="sRGB">
<feFlood flood-opacity="0" result="BackgroundImageFix"/>
<feColorMatrix in="SourceAlpha" type="matrix" values="0 0 0 0 0 0 0 0 0 0 0 0 0 0 0 0 0 0 127 0" result="hardAlpha"/>
<feOffset/>
<feGaussianBlur stdDeviation="1"/>
<feComposite in2="hardAlpha" operator="out"/>
<feColorMatrix type="matrix" values="0 0 0 0 1 0 0 0 0 1 0 0 0 0 1 0 0 0 0.25 0"/>
<feBlend mode="normal" in2="BackgroundImageFix" result="effect1_dropShadow_6_1021"/>
<feBlend mode="normal" in="SourceGraphic" in2="effect1_dropShadow_6_1021" result="shape"/>
</filter>
<filter id="filter6_d_6_1021" x="1.46582" y="19.5062" width="13.8644" height="16.2057" filterUnits="userSpaceOnUse" color-interpolation-filters="sRGB">
<feFlood flood-opacity="0" result="BackgroundImageFix"/>
<feColorMatrix in="SourceAlpha" type="matrix" values="0 0 0 0 0 0 0 0 0 0 0 0 0 0 0 0 0 0 127 0" result="hardAlpha"/>
<feOffset/>
<feGaussianBlur stdDeviation="1"/>
<feComposite in2="hardAlpha" operator="out"/>
<feColorMatrix type="matrix" values="0 0 0 0 1 0 0 0 0 1 0 0 0 0 1 0 0 0 0.25 0"/>
<feBlend mode="normal" in2="BackgroundImageFix" result="effect1_dropShadow_6_1021"/>
<feBlend mode="normal" in="SourceGraphic" in2="effect1_dropShadow_6_1021" result="shape"/>
</filter>
<filter id="filter7_d_6_1021" x="6.15625" y="24.6482" width="15.8538" height="16.2161" filterUnits="userSpaceOnUse" color-interpolation-filters="sRGB">
<feFlood flood-opacity="0" result="BackgroundImageFix"/>
<feColorMatrix in="SourceAlpha" type="matrix" values="0 0 0 0 0 0 0 0 0 0 0 0 0 0 0 0 0 0 127 0" result="hardAlpha"/>
<feOffset/>
<feGaussianBlur stdDeviation="1"/>
<feComposite in2="hardAlpha" operator="out"/>
<feColorMatrix type="matrix" values="0 0 0 0 1 0 0 0 0 1 0 0 0 0 1 0 0 0 0.25 0"/>
<feBlend mode="normal" in2="BackgroundImageFix" result="effect1_dropShadow_6_1021"/>
<feBlend mode="normal" in="SourceGraphic" in2="effect1_dropShadow_6_1021" result="shape"/>
</filter>
<filter id="filter8_d_6_1021" x="12.819" y="27.2412" width="16.3147" height="15.7588" filterUnits="userSpaceOnUse" color-interpolation-filters="sRGB">
<feFlood flood-opacity="0" result="BackgroundImageFix"/>
<feColorMatrix in="SourceAlpha" type="matrix" values="0 0 0 0 0 0 0 0 0 0 0 0 0 0 0 0 0 0 127 0" result="hardAlpha"/>
<feOffset/>
<feGaussianBlur stdDeviation="1"/>
<feComposite in2="hardAlpha" operator="out"/>
<feColorMatrix type="matrix" values="0 0 0 0 1 0 0 0 0 1 0 0 0 0 1 0 0 0 0.25 0"/>
<feBlend mode="normal" in2="BackgroundImageFix" result="effect1_dropShadow_6_1021"/>
<feBlend mode="normal" in="SourceGraphic" in2="effect1_dropShadow_6_1021" result="shape"/>
</filter>
<filter id="filter9_d_6_1021" x="19.6636" y="27.7611" width="16.3042" height="13.7854" filterUnits="userSpaceOnUse" color-interpolation-filters="sRGB">
<feFlood flood-opacity="0" result="BackgroundImageFix"/>
<feColorMatrix in="SourceAlpha" type="matrix" values="0 0 0 0 0 0 0 0 0 0 0 0 0 0 0 0 0 0 127 0" result="hardAlpha"/>
<feOffset/>
<feGaussianBlur stdDeviation="1"/>
<feComposite in2="hardAlpha" operator="out"/>
<feColorMatrix type="matrix" values="0 0 0 0 1 0 0 0 0 1 0 0 0 0 1 0 0 0 0.25 0"/>
<feBlend mode="normal" in2="BackgroundImageFix" result="effect1_dropShadow_6_1021"/>
<feBlend mode="normal" in="SourceGraphic" in2="effect1_dropShadow_6_1021" result="shape"/>
</filter>
<filter id="filter10_d_6_1021" x="24.8472" y="21.1342" width="16.3147" height="15.7588" filterUnits="userSpaceOnUse" color-interpolation-filters="sRGB">
<feFlood flood-opacity="0" result="BackgroundImageFix"/>
<feColorMatrix in="SourceAlpha" type="matrix" values="0 0 0 0 0 0 0 0 0 0 0 0 0 0 0 0 0 0 127 0" result="hardAlpha"/>
<feOffset/>
<feGaussianBlur stdDeviation="1"/>
<feComposite in2="hardAlpha" operator="out"/>
<feColorMatrix type="matrix" values="0 0 0 0 1 0 0 0 0 1 0 0 0 0 1 0 0 0 0.25 0"/>
<feBlend mode="normal" in2="BackgroundImageFix" result="effect1_dropShadow_6_1021"/>
<feBlend mode="normal" in="SourceGraphic" in2="effect1_dropShadow_6_1021" result="shape"/>
</filter>
<filter id="filter11_d_6_1021" x="27.4589" y="15.7344" width="15.8538" height="14.551" filterUnits="userSpaceOnUse" color-interpolation-filters="sRGB">
<feFlood flood-opacity="0" result="BackgroundImageFix"/>
<feColorMatrix in="SourceAlpha" type="matrix" values="0 0 0 0 0 0 0 0 0 0 0 0 0 0 0 0 0 0 127 0" result="hardAlpha"/>
<feOffset/>
<feGaussianBlur stdDeviation="1"/>
<feComposite in2="hardAlpha" operator="out"/>
<feColorMatrix type="matrix" values="0 0 0 0 1 0 0 0 0 1 0 0 0 0 1 0 0 0 0.25 0"/>
<feBlend mode="normal" in2="BackgroundImageFix" result="effect1_dropShadow_6_1021"/>
<feBlend mode="normal" in="SourceGraphic" in2="effect1_dropShadow_6_1021" result="shape"/>
</filter>
</defs>
</svg>
