<svg width="18" height="20" viewBox="0 0 18 20" fill="none" xmlns="http://www.w3.org/2000/svg">
<path fill-rule="evenodd" clip-rule="evenodd" d="M8.56167 1.375C6.41006 1.375 4.66583 3.11922 4.66583 5.27083C4.66583 7.42244 6.41006 9.16667 8.56167 9.16667C10.7133 9.16667 12.4575 7.42244 12.4575 5.27083C12.4575 3.11922 10.7133 1.375 8.56167 1.375ZM3.29083 5.27083C3.29083 2.35983 5.65067 0 8.56167 0C11.4727 0 13.8325 2.35983 13.8325 5.27083C13.8325 8.18183 11.4727 10.5417 8.56167 10.5417C5.65067 10.5417 3.29083 8.18183 3.29083 5.27083Z" fill="white"/>
<path fill-rule="evenodd" clip-rule="evenodd" d="M0 19.0209C0 14.9684 3.9757 11.9167 8.56166 11.9167C13.1476 11.9167 17.1233 14.9684 17.1233 19.0209C17.1233 19.4005 16.8155 19.7084 16.4358 19.7084C16.0561 19.7084 15.7483 19.4005 15.7483 19.0209C15.7483 15.9783 12.6657 13.2917 8.56166 13.2917C4.45763 13.2917 1.375 15.9783 1.375 19.0209C1.375 19.4005 1.0672 19.7084 0.6875 19.7084C0.307804 19.7084 0 19.4005 0 19.0209Z" fill="white"/>
</svg>
